<?xml version="1.0" encoding="UTF-8"?>
<svg xmlns="http://www.w3.org/2000/svg" xmlns:xlink="http://www.w3.org/1999/xlink" width="512" height="512" viewBox="0 0 52 58" version="1.1"><!-- Generator: Sketch 50.2 (55047) - http://www.bohemiancoding.com/sketch --><title>029 - Pressure Gauge </title><desc>Created with Sketch.</desc><defs/><g id="Page-1" stroke="none" stroke-width="1" fill="none" fill-rule="evenodd"><g id="029---Pressure-Gauge-" fill-rule="nonzero"><path d="M20,51.3 L20,57 C20,57.5522847 19.5522847,58 19,58 L13,58 C12.4477153,58 12,57.5522847 12,57 L12,47.9" id="Shape" fill="#C03A2B"/><path d="M40,47.9 L40,57 C40,57.5522847 39.5522847,58 39,58 L33,58 C32.4477153,58 32,57.5522847 32,57 L32,51.3" id="Shape" fill="#C03A2B"/><circle id="Oval" fill="#F29C1F" cx="26" cy="26" r="26"/><circle id="Oval" fill="#90BAE1" cx="26" cy="26" r="22"/><circle id="Oval" fill="#B0D3F0" cx="26" cy="26" r="20"/><path d="M18.02,34.98 L15.2,37.8 C14.8127181,38.1905035 14.1827817,38.1949712 13.79,37.81 C7.3212483,31.1531774 7.40592585,20.5328303 13.98,13.98 L18.22,18.22 C13.9935549,22.444844 13.9180352,29.2727077 18.05,33.59 C18.4164107,33.9856362 18.4031394,34.6005411 18.02,34.98 Z" id="Shape" fill="#24AE5F"/><path d="M38.01,13.99 L33.78,18.22 C29.480164,13.9306201 22.519836,13.9306201 18.22,18.22 L13.98,13.98 C17.1650641,10.7894021 21.4887997,8.99730766 25.9970748,8.99918376 C30.50535,9.00105986 34.8275926,10.7967523 38.01,13.99 Z" id="Shape" fill="#E57E25"/><path d="M43,26 C43.003184,30.3909151 41.2999905,34.6112496 38.25,37.77 C38.0627299,37.9681041 37.8038286,38.0828215 37.5312785,38.0884604 C37.2587284,38.0940994 36.9953038,37.9901888 36.8,37.8 L33.98,34.98 C33.5965254,34.6046377 33.5832001,33.9916726 33.95,33.6 C36.3741675,31.06375 37.4471502,27.5255059 36.84,24.07 C36.4560126,21.8482694 35.3859454,19.8025526 33.78,18.22 L38.01,13.99 C41.2059735,17.1693161 43.0019823,21.4919746 43,26 Z" id="Shape" fill="#C03A2B"/><path d="M39,27 L28,27 C27.4477153,27 27,26.5522847 27,26 C27,25.4477153 27.4477153,25 28,25 L39,25 C39.5522847,25 40,25.4477153 40,26 C40,26.5522847 39.5522847,27 39,27 Z" id="Shape" fill="#2C3E50"/><path d="M24,27 L20,27 C19.4477153,27 19,26.5522847 19,26 C19,25.4477153 19.4477153,25 20,25 L24,25 C24.5522847,25 25,25.4477153 25,26 C25,26.5522847 24.5522847,27 24,27 Z" id="Shape" fill="#2C3E50"/><circle id="Oval" fill="#4482C3" cx="26" cy="26" r="2"/></g></g></svg>
